<svg width="17" height="21" viewBox="0 0 17 21" fill="none" xmlns="http://www.w3.org/2000/svg">
<g id="bookmark-frame">
<path id="bookmark" d="M0.5 2.59094C0.5 1.21023 1.69391 0.0909424 3.16667 0.0909424H13.8333C15.3061 0.0909424 16.5 1.21023 16.5 2.59094V19.4659C16.5 19.6964 16.3647 19.9082 16.1479 20.017C15.9311 20.1258 15.6681 20.1138 15.4635 19.986L8.5 16.4671L1.53647 19.986C1.3319 20.1138 1.06887 20.1258 0.852095 20.017C0.635323 19.9082 0.5 19.6964 0.5 19.4659V2.59094ZM3.16667 1.34094C2.43029 1.34094 1.83333 1.90059 1.83333 2.59094V18.2981L8.1302 15.1959C8.35413 15.056 8.64587 15.056 8.8698 15.1959L15.1667 18.2981V2.59094C15.1667 1.90059 14.5697 1.34094 13.8333 1.34094H3.16667Z" fill="#848D97"/>
</g>
</svg>
